# xmcd
#
# Track frame offsets:
#	150
#	15571
#	32669
#	49313
#	63255
#	78892
#	97573
#	111897
#	128343
#	143130
#	159006
#	174727
#	188514
#	204327
#	219760
#	234976
#	253172
#	268082
#	283590
#	299585
#	314140
#	328833
#
# Disc length: 4569 seconds
#
# Revision: 1
# Processed by: cddbd v1.5.2PL0 Copyright (c) Steve Scherf et al.
# Submitted via: audiograbber 1.83.01
#
DISCID=2f11d716
DTITLE=Kastelruther Spatzen - Planet der Lieder CD 1
DYEAR=2013
DGENRE=Volksmusik
TTITLE0=Der Planet der Lieder
TTITLE1=Ihr Herz hat keine Zweifel
TTITLE2=Der ganze Himmel ist noch frei
TTITLE3=Judas küsst noch immer
TTITLE4=Solang im Herzen rote Rosen blühn
TTITLE5=Auf'm Gipfel
TTITLE6=Für mich bist du die Welt
TTITLE7=Große Träume
TTITLE8=Einmal kommrt ein kleines Wunder
TTITLE9=Wie die Berge, so die Menschen
TTITLE10=Ein bischen Hoffnung
TTITLE11=Miteinander woll'n wir feiern
TTITLE12=Ich lege meinen Traum in deine Hände
TTITLE13=Ein Herz, ein Baum, ein Pfeil
TTITLE14=Leben und leben lassen
TTITLE15=Deine Träume sind meine Träume
TTITLE16=Hand auf's Herz
TTITLE17=Immer noch
TTITLE18=Das wirklich wahre Leben
TTITLE19=Ein Kreuz und eine Rose
TTITLE20=Eine Herde stolzer Pferde
TTITLE21=Mein Papa und ich
EXTD=
EXTT0=
EXTT1=
EXTT2=
EXTT3=
EXTT4=
EXTT5=
EXTT6=
EXTT7=
EXTT8=
EXTT9=
EXTT10=
EXTT11=
EXTT12=
EXTT13=
EXTT14=
EXTT15=
EXTT16=
EXTT17=
EXTT18=
EXTT19=
EXTT20=
EXTT21=
PLAYORDER=
